<?xml version="1.0" encoding="UTF-8" standalone="no"?><!DOCTYPE svg PUBLIC "-//W3C//DTD SVG 1.1//EN" "http://www.w3.org/Graphics/SVG/1.1/DTD/svg11.dtd"><svg width="100%" height="100%" viewBox="0 0 180 144" version="1.1" xmlns="http://www.w3.org/2000/svg" xmlns:xlink="http://www.w3.org/1999/xlink" xml:space="preserve" xmlns:serif="http://www.serif.com/" style="fill-rule:evenodd;clip-rule:evenodd;stroke-linecap:round;stroke-linejoin:round;"><path d="M0,103.28l0,-96.08l180,0l0,94.057l0,-0.097l0,24.48c0,0 -46.606,23.189 -81,7.92c-31.44,-13.957 -99,-12.24 -99,-12.24l0,-18.04l0,0Z" style="fill:#8a63ae;fill-opacity:0.71;"/><path d="M0,103.28l0,-96.08l180,0l0,94.057l0,-0.097l0,32.4c0,0 -59.296,-22.709 -90,-7.2c-32.383,16.357 -88.63,8.631 -90,-2.126l0,-20.954l0,0Z" style="fill:#8a63ae;fill-opacity:0.71;"/><path d="M0,96.08l0,-96.08l180,0l0,121.32c0,0 -53.086,-13.891 -87.48,-13.32c-34.394,0.571 -92.52,9 -92.52,9l0,-20.92l0,0Z" style="fill:#6f3d9e;"/><g><text x="22.402px" y="89.768px" style="font-family:'HiraMaruPro-W4', 'Hiragino Maru Gothic Pro', sans-serif;font-size:24.285px;fill:#fff;">VIBEY BO<tspan x="140.939px " y="89.768px ">T</tspan></text><g><path id="skin" d="M76.903,30.106l-1.44,-8.055c-0.63,-3.239 -5.535,-2.61 -5.175,1.26c0,0 2.801,15.803 3.202,21.131l0,-0.185c0.389,7.612 7.101,12.484 14.71,12.095c4.389,-0.243 8.537,-2.087 11.658,-5.182c2.672,-2.83 9.238,-10.565 9.238,-10.565c1.34,-1.977 0.3,-5.032 -0.734,-4.28l-9.045,4.26l0.23,-0.077c-1.726,0.61 -2.189,-1.103 -2.034,-2.336l1.52,-20.077c0.379,-4.873 -5.226,-4.741 -5.226,-0.692l-0.839,11.308l-6.968,0.605l-0.429,0.433l-0.487,-0.354l-8.181,0.711Z" style="fill:#fff;fill-rule:nonzero;"/><path d="M76.903,30.106l-1.44,-8.055c-0.63,-3.239 -5.535,-2.61 -5.175,1.26c0,0 2.801,15.803 3.202,21.131l0,-0.185c0.389,7.612 7.101,12.484 14.71,12.095c4.389,-0.243 8.537,-2.087 11.658,-5.182c2.672,-2.83 9.238,-10.565 9.238,-10.565c1.34,-1.977 0.3,-5.032 -0.734,-4.28l-9.045,4.26l0.23,-0.077c-1.726,0.61 -2.189,-1.103 -2.034,-2.336l1.52,-20.077c0.379,-4.873 -5.226,-4.741 -5.226,-0.692l-0.839,11.308" style="fill:#fff;fill-rule:nonzero;stroke:#d58eff;stroke-width:1.44px;"/><path d="M85.571,31.666c0.171,-1.55 1.267,-2.455 2.742,-2.488c1.378,-0.031 2.837,0.69 2.85,2.36c0,0 0.142,5.011 0.115,5.259c-0.171,1.55 -1.565,2.667 -3.114,2.496c-1.55,-0.17 -2.435,-1.582 -2.497,-3.114l-0.096,-4.513Z" style="fill:#fff;fill-rule:nonzero;stroke:#d58eff;stroke-width:1.44px;"/><path d="M79.861,31.666c0.171,-1.55 1.267,-2.455 2.742,-2.488c1.378,-0.031 2.837,0.69 2.85,2.36c0,0 0.142,5.011 0.115,5.259c-0.171,1.55 -1.565,2.667 -3.115,2.496c-1.549,-0.17 -2.435,-1.582 -2.496,-3.114l-0.096,-4.513Z" style="fill:#fff;fill-rule:nonzero;stroke:#d58eff;stroke-width:1.44px;"/></g></g></svg>